<svg xmlns="http://www.w3.org/2000/svg" viewBox="0 0 300 40"><g fill="#010101"><path d="M50.5 21.95h14.02v-5H50.5v-6.36h24.06V5.45H43.34v29.1h31.59v-5.44H50.5v-7.16zM234.67 5.45l-14 23.66h-21V5.45h-7.17v29.11h32l3.67-6.38h19.28l3.65 6.39h8L241.5 5.45zm-3.53 17.41l6.59-12.14 6.81 12.14zM33.72 25.02L10.4 5.44H5.28v29.09h6.2V14.52l23.75 20.01H39.92V5.44h-6.2v19.58zM105 29.11H84.76V5.45h-7.08v23.32a5.79 5.79 0 0 0 5.79 5.79h22.91a5.78 5.78 0 0 0 5.78-5.79V5.45H105zM166 5.45L149.73 32.9l-9.85-9.36h3.22a5.39 5.39 0 0 0 5.4-5.39v-7.3a5.4 5.4 0 0 0-5.4-5.4h-27.69v29.11h7v-11h8.31l10.89 11h14.23l3.67-6.38h19.28l3.65 6.39h8L172.85 5.45zm-43.6 13.07v-8.06h17.32a2.11 2.11 0 0 1 2.11 2.1v3.86a2.11 2.11 0 0 1-2.11 2.1zm40.09 4.34l6.59-12.14 6.81 12.14zM289.19 19.56h.45a4.88 4.88 0 0 0 4.88-4.87v-4.36a4.88 4.88 0 0 0-4.88-4.88h-28.49v29.11h27.41a6.16 6.16 0 0 0 6.16-6.17v-3.31a5.52 5.52 0 0 0-5.53-5.52zm-20.73-9.37h16.86a2.23 2.23 0 0 1 2.24 2.23v2.43a2.23 2.23 0 0 1-2.24 2.23h-16.86zm19.37 17.26a2.23 2.23 0 0 1-2.24 2.23h-17.13v-7.43h17.13a2.24 2.24 0 0 1 2.24 2.24z"/></g></svg>
